<svg width="30" height="30" viewBox="0 0 30 30" fill="none" xmlns="http://www.w3.org/2000/svg">
<path d="M15 27.5C8.09625 27.5 2.5 21.9038 2.5 15C2.5 8.09625 8.09625 2.5 15 2.5C21.9038 2.5 27.5 8.09625 27.5 15C27.4925 21.9 21.9 27.4925 15 27.5ZM14.98 25H15C17.6513 24.9974 20.193 23.9419 22.0664 22.0658C23.9397 20.1896 24.9913 17.6463 24.99 14.995C24.9887 12.3437 23.9345 9.80145 22.0593 7.92717C20.1841 6.05289 17.6413 5.00001 14.99 5.00001C12.3387 5.00001 9.79592 6.05289 7.9207 7.92717C6.04548 9.80145 4.99133 12.3437 4.99 14.995C4.98868 17.6463 6.04029 20.1896 7.91363 22.0658C9.78698 23.9419 12.3287 24.9974 14.98 25ZM12.5 21.25L7.5 16.25L9.2625 14.4875L12.5 17.7125L20.7375 9.475L22.5 11.25L12.5 21.25Z" fill="#FDFFFC"/>
</svg>
