<svg width="30" height="30" viewBox="0 0 30 30" fill="none" xmlns="http://www.w3.org/2000/svg">
<path d="M5 7.5H25L23.025 25.275C22.9573 25.8867 22.6663 26.452 22.2078 26.8625C21.7493 27.2731 21.1555 27.5 20.54 27.5H9.46C8.84454 27.5 8.2507 27.2731 7.79218 26.8625C7.33367 26.452 7.0427 25.8867 6.975 25.275L5 7.5Z" stroke="#FDFFFC" stroke-width="3" stroke-linecap="round" stroke-linejoin="round"/>
<path d="M9.18125 3.93375C9.38344 3.50496 9.70338 3.1425 10.1038 2.88864C10.5041 2.63478 10.9684 2.49999 11.4425 2.5H18.5575C19.0318 2.49976 19.4963 2.63443 19.897 2.8883C20.2976 3.14218 20.6177 3.50477 20.82 3.93375L22.5 7.5H7.5L9.18125 3.93375Z" stroke="#FDFFFC" stroke-width="3" stroke-linecap="round" stroke-linejoin="round"/>
<path d="M2.5 7.5H27.5" stroke="#FDFFFC" stroke-width="3" stroke-linecap="round" stroke-linejoin="round"/>
<path d="M12.5 13.75V20" stroke="#FDFFFC" stroke-width="3" stroke-linecap="round" stroke-linejoin="round"/>
<path d="M17.5 13.75V20" stroke="#FDFFFC" stroke-width="3" stroke-linecap="round" stroke-linejoin="round"/>
</svg>
